<?xml version="1.0" encoding="UTF-8" standalone="no"?>
<svg xmlns="http://www.w3.org/2000/svg" xmlns:xlink="http://www.w3.org/1999/xlink" width="600" height="525" version="1.0">
  <defs>
    <linearGradient id="a">
      <stop offset="0" stop-color="#fff"/>
      <stop offset="1" stop-color="#fff" stop-opacity="0"/>
    </linearGradient>
    <linearGradient id="b">
      <stop offset="0" stop-color="#5aa02c"/>
      <stop offset="1" stop-color="#5aa02c" stop-opacity="0"/>
    </linearGradient>
    <linearGradient xlink:href="#a" id="P" x1="376.85" x2="364.32" y1="154.85" y2="161.08" gradientTransform="matrix(3.1008 -1.2994 .96626 2.3057 -655.14 189.07)" gradientUnits="userSpaceOnUse"/>
    <linearGradient xlink:href="#a" id="O" x1="372.8" x2="364.95" y1="153.31" y2="161.27" gradientTransform="matrix(3.283 -.72501 .53911 2.4412 -662.65 -6.4085)" gradientUnits="userSpaceOnUse"/>
    <linearGradient xlink:href="#a" id="N" x1="368.69" x2="369.26" y1="148.53" y2="165.07" gradientTransform="matrix(2.0731 2.6468 -1.9682 1.5415 220.02 -1114.3)" gradientUnits="userSpaceOnUse"/>
    <linearGradient xlink:href="#a" id="M" x1="373.06" x2="366.54" y1="148.09" y2="161.83" gradientTransform="matrix(3.2416 .8921 -.66336 2.4104 -500.41 -645.91)" gradientUnits="userSpaceOnUse"/>
    <linearGradient xlink:href="#a" id="L" x1="373.45" x2="365.85" y1="150.21" y2="160.93" gradientTransform="matrix(3.1615 -1.1439 .85061 2.3508 -696.8 146.56)" gradientUnits="userSpaceOnUse"/>
    <linearGradient xlink:href="#a" id="K" x1="372.76" x2="364.7" y1="151.74" y2="160.14" gradientTransform="matrix(3.1361 -1.2118 .90105 2.332 -743.47 147.19)" gradientUnits="userSpaceOnUse"/>
    <linearGradient xlink:href="#a" id="J" x1="365.65" x2="373.4" y1="157.21" y2="157.21" gradientTransform="matrix(3.2549 .84207 -.62615 2.4203 -496.49 -556.81)" gradientUnits="userSpaceOnUse"/>
    <linearGradient xlink:href="#a" id="I" x1="369.94" x2="369.2" y1="147.05" y2="162.25" gradientTransform="matrix(2.157 2.5789 -1.9176 1.604 -1.3652 -1066.9)" gradientUnits="userSpaceOnUse"/>
    <linearGradient xlink:href="#a" id="H" x1="373.4" x2="365.65" y1="152.67" y2="160.42" gradientTransform="matrix(3.3621 0 0 2.5 -773.52 -316.98)" gradientUnits="userSpaceOnUse"/>
    <linearGradient xlink:href="#a" id="G" x1="370.27" x2="368.78" y1="151.17" y2="163.25" gradientTransform="matrix(2.6305 2.0938 -1.5569 1.956 -204.29 -1023.2)" gradientUnits="userSpaceOnUse"/>
    <linearGradient xlink:href="#a" id="F" x1="372.01" x2="365.65" y1="150.53" y2="160.42" gradientTransform="matrix(3.3621 0 0 2.5 -709.37 -299.6)" gradientUnits="userSpaceOnUse"/>
    <linearGradient xlink:href="#a" id="E" x1="374.66" x2="365.09" y1="153.64" y2="158.58" gradientTransform="matrix(3.0957 -1.3115 .97519 2.302 -803.69 230.18)" gradientUnits="userSpaceOnUse"/>
    <linearGradient xlink:href="#a" id="D" x1="374.42" x2="363.88" y1="154.49" y2="157.82" gradientTransform="matrix(3.0805 -1.3468 1.0015 2.2906 -722.01 255.04)" gradientUnits="userSpaceOnUse"/>
    <linearGradient xlink:href="#a" id="C" x1="369.53" x2="365.65" y1="151.06" y2="162.82" gradientTransform="matrix(3.3621 0 0 2.5 -708.7 -256.84)" gradientUnits="userSpaceOnUse"/>
    <linearGradient xlink:href="#a" id="B" x1="370.4" x2="368.03" y1="150.07" y2="162.99" gradientTransform="matrix(2.8633 1.762 -1.3102 2.1292 -393.93 -877.06)" gradientUnits="userSpaceOnUse"/>
    <linearGradient xlink:href="#a" id="A" x1="366.53" x2="368.01" y1="150.15" y2="160.5" gradientTransform="matrix(2.8566 -1.773 1.3184 2.1241 -843.1 428.04)" gradientUnits="userSpaceOnUse"/>
    <linearGradient xlink:href="#b" id="p" x1="433.43" x2="462.81" y1="413.12" y2="403.36" gradientTransform="matrix(2.5 0 0 2.5 -375 -783.54)" gradientUnits="userSpaceOnUse"/>
    <linearGradient xlink:href="#b" id="o" x1="448.67" x2="478.48" y1="412.5" y2="400.47" gradientTransform="matrix(2.5 0 0 2.5 -375 -783.54)" gradientUnits="userSpaceOnUse"/>
    <linearGradient id="n" x1="268.97" x2="345.61" y1="422.42" y2="422.42" gradientTransform="matrix(2.5 0 0 2.5 -375 -783.54)" gradientUnits="userSpaceOnUse">
      <stop offset="0" stop-color="#5aa02c"/>
      <stop offset="1" stop-color="#5aa02c" stop-opacity="0"/>
    </linearGradient>
    <linearGradient id="m" x1="386.31" x2="416.5" y1="421.13" y2="437.58" gradientTransform="matrix(2.5 0 0 2.5 -375 -783.54)" gradientUnits="userSpaceOnUse">
      <stop offset="0" stop-color="#5aa02c"/>
      <stop offset="1" stop-color="#5aa02c" stop-opacity="0"/>
    </linearGradient>
    <linearGradient xlink:href="#b" id="l" x1="458.4" x2="472.84" y1="413.11" y2="417.98" gradientTransform="matrix(2.5 0 0 2.5 -375 -783.54)" gradientUnits="userSpaceOnUse"/>
    <linearGradient xlink:href="#b" id="k" x1="458.16" x2="477.65" y1="425.54" y2="418.92" gradientTransform="matrix(2.5 0 0 2.5 -375 -783.54)" gradientUnits="userSpaceOnUse"/>
    <linearGradient id="j" x1="419.4" x2="374.63" y1="446.16" y2="458.25" gradientTransform="matrix(2.5 0 0 2.5 -375 -783.54)" gradientUnits="userSpaceOnUse">
      <stop offset="0" stop-color="#5aa02c"/>
      <stop offset="1" stop-color="#5aa02c" stop-opacity="0"/>
    </linearGradient>
    <linearGradient id="i" x1="391.34" x2="341.46" y1="447.09" y2="488.5" gradientTransform="matrix(2.5 0 0 2.5 -375 -783.54)" gradientUnits="userSpaceOnUse">
      <stop offset="0" stop-color="#5aa02c"/>
      <stop offset="1" stop-color="#5aa02c" stop-opacity="0"/>
    </linearGradient>
    <linearGradient id="h" x1="301.03" x2="295.68" y1="449.24" y2="429.21" gradientTransform="matrix(2.5 0 0 2.5 -375 -783.54)" gradientUnits="userSpaceOnUse">
      <stop offset="0" stop-color="#5aa02c"/>
      <stop offset="1" stop-color="#5aa02c" stop-opacity="0"/>
    </linearGradient>
    <linearGradient id="g" x1="394.63" x2="476.71" y1="445.49" y2="436.04" gradientTransform="matrix(2.5 0 0 2.5 -375 -783.54)" gradientUnits="userSpaceOnUse">
      <stop offset="0" stop-color="#5aa02c"/>
      <stop offset="1" stop-color="#5aa02c" stop-opacity="0"/>
    </linearGradient>
    <linearGradient id="f" x1="310.8" x2="283.67" y1="446.67" y2="463.77" gradientTransform="matrix(2.5 0 0 2.5 -375 -783.54)" gradientUnits="userSpaceOnUse">
      <stop offset="0" stop-color="#5aa02c"/>
      <stop offset="1" stop-color="#5aa02c" stop-opacity="0"/>
    </linearGradient>
    <linearGradient id="e" x1="353.47" x2="329.27" y1="461.22" y2="475.14" gradientTransform="matrix(2.5 0 0 2.5 -375 -783.54)" gradientUnits="userSpaceOnUse">
      <stop offset="0" stop-color="#5aa02c"/>
      <stop offset="1" stop-color="#5aa02c" stop-opacity="0"/>
    </linearGradient>
    <linearGradient id="d" x1="450.97" x2="446.48" y1="463.77" y2="446.76" gradientTransform="matrix(2.5 0 0 2.5 -375 -783.54)" gradientUnits="userSpaceOnUse">
      <stop offset="0" stop-color="#5aa02c"/>
      <stop offset="1" stop-color="#5aa02c" stop-opacity="0"/>
    </linearGradient>
    <linearGradient id="c" x1="377.47" x2="376.73" y1="505.96" y2="471.94" gradientTransform="matrix(2.5 0 0 2.5 -375 -783.54)" gradientUnits="userSpaceOnUse">
      <stop offset="0" stop-color="#a80"/>
      <stop offset="1" stop-color="#a80" stop-opacity="0"/>
    </linearGradient>
    <linearGradient id="y" x1="567.48" x2="564.01" y1="264.9" y2="69.845" gradientUnits="userSpaceOnUse">
      <stop offset="0" stop-color="#a80"/>
      <stop offset="1" stop-color="#a80" stop-opacity="0"/>
    </linearGradient>
    <radialGradient xlink:href="#a" id="x" cx="319.06" cy="433.81" r="1.0786" gradientTransform="matrix(2.5 0 0 9.764 -375 -3934.7)" gradientUnits="userSpaceOnUse"/>
    <radialGradient xlink:href="#a" id="w" cx="285.29" cy="422.83" r="1.0499" gradientTransform="matrix(2.2706 .61 -2.3511 8.7518 684.57 -3601)" gradientUnits="userSpaceOnUse"/>
    <radialGradient xlink:href="#a" id="v" cx="302.51" cy="433.13" r="1.4568" gradientTransform="matrix(2.4679 -.39939 2.3927 14.785 -1401.4 -5983.7)" gradientUnits="userSpaceOnUse"/>
    <radialGradient xlink:href="#a" id="u" cx="309.15" cy="439.2" r="3.356" gradientTransform="matrix(2.5 0 0 4.8253 -375 -1804.8)" gradientUnits="userSpaceOnUse"/>
    <radialGradient xlink:href="#a" id="t" cx="288.82" cy="434.69" r="2.045" gradientTransform="matrix(2.4992 .06212 -.32676 13.147 -232.73 -5427.4)" gradientUnits="userSpaceOnUse"/>
    <radialGradient xlink:href="#a" id="s" cx="270.3" cy="418.22" r="1.0605" gradientTransform="matrix(2.5 0 0 22.202 -375 -9023.2)" gradientUnits="userSpaceOnUse"/>
    <radialGradient xlink:href="#a" id="r" cx="282.66" cy="411.31" r="7.6802" gradientTransform="matrix(2.4797 0 0 6.76 -369.25 -2535.7)" gradientUnits="userSpaceOnUse"/>
    <radialGradient id="q" cx="319.81" cy="422.17" r="12.496" gradientTransform="matrix(2.5 0 0 .37202 -375 114.15)" gradientUnits="userSpaceOnUse">
      <stop offset="0" stop-color="#fff"/>
      <stop offset="1" stop-color="#fff" stop-opacity="0"/>
    </radialGradient>
    <radialGradient id="z" cx="552.51" cy="51.195" r="270.23" gradientTransform="matrix(1.3482 0 0 .4686 -192.37 77.93)" gradientUnits="userSpaceOnUse">
      <stop offset="0" stop-color="#fea"/>
      <stop offset="1" stop-color="#fea" stop-opacity="0"/>
    </radialGradient>
  </defs>
  <g transform="translate(-250 -1.6388)">
    <path fill="#d4aa00" fill-rule="evenodd" d="M311.3 373.74c-28.47 15.065-28.08 54.624-27.996 65.845.07795 11.33 8.6478 15.578 14.608 17.608 153.01 52.118 353.22 48.761 509.3 2.8964 12.808-3.7636 17.415-12.941 16.574-22.689-4.9657-57.591-28.457-71.103-43.98-74.647-35.234-8.0434-433.01-7.7948-468.51 10.986z"/>
    <path fill="url(#c)" fill-rule="evenodd" d="M311.3 373.74c-28.47 15.065-28.08 54.624-27.996 65.845.07795 11.33 8.6478 15.578 14.608 17.608 153.01 52.118 353.22 48.761 509.3 2.8964 12.808-3.7636 17.415-12.941 16.574-22.689-4.9657-57.591-28.457-71.103-43.98-74.647-35.234-8.0434-433.01-7.7948-468.51 10.986z"/>
    <path fill="#803300" fill-rule="evenodd" d="M302.89 343.48c-14.82 19.17-19.328 41.995 2.234 47.816 145.81 39.36 328.83 47.064 491.69.75232 43.043-12.24 5.3174-41.081-6.615-55.756-23.32-28.678-480.61-1.4675-487.3 7.1876z"/>
    <path fill="#8dd35f" fill-rule="evenodd" d="M787.71 294.41c54.126 24.724 51.587 46.564 37.42 60.14-24.731 23.7-37.93 8.5855-60.14 18.71-27.996 12.762-41.779-1.1943-69.495 13.364-14.954 7.8548-79.664-44.26-78.182-49.448l170.4-42.766z"/>
    <path fill="#8dd35f" fill-rule="evenodd" d="M634.35 322.14c26.729 15.369 83.579 60.955 65.486 64.149-12.932 2.2835-22.213 10.276-35.856 13.815-14.708 3.8158-34.16 2.6728-59.366-10.14-28.614-14.546-12.696-58.804-12.696-58.804l42.432-9.021z"/>
    <path fill="url(#d)" fill-rule="evenodd" d="M787.71 294.41c54.126 24.724 51.587 46.564 37.42 60.14-24.731 23.7-37.93 8.5855-60.14 18.71-27.996 12.762-41.779-1.1943-69.495 13.364-14.954 7.8548-79.664-44.26-78.182-49.448l170.4-42.766z"/>
    <path fill="#8dd35f" fill-rule="evenodd" d="M532.78 321.48c3.3411 13.364 9.819 41.173 6.6822 64.149-6.6359 48.607-20.68 28.309-35.082 24.39-16.391-4.4598-22.805 3.6811-31.908 2.84-7.6653-.70832-9.376-7.3572-13.703-10.631-3.5595-2.6929-10.012-2.2244-12.525-7.5782-6.9062-14.716-23.008-10.986-28.734-31.406-7.75-27.64-6.014-40.093-6.014-40.093l121.28-1.6706z"/>
    <path fill="#8dd35f" fill-rule="evenodd" d="M465.96 344.2c-29.124 56.709-43.622 41.396-79.853 36.418-49.416-6.7898-43.915.63732-69.495-4.6776-43.7-9.0797-50.852-34.438-36.745-53.278 13.713-18.314 58.796-27.577 58.796-27.577 29.363 12.789 145.98 7.0329 127.3 49.114zm120.28-10.023c12.696 20.715 35.812 31.272 34.079 60.808-2.2763 38.806-27.895 13.477-43.769 12.362-9.1008-.6392-14.571 13.747-31.406 1.3364-14.96-11.028-25.021-23.72-44.771-36.084-16.901-10.58-6.014-38.089-6.014-38.089l91.881-.3341z"/>
    <path fill="url(#e)" fill-rule="evenodd" d="M532.78 321.48c3.3411 13.364 9.819 41.173 6.6822 64.149-6.6359 48.607-20.68 28.309-35.082 24.39-16.391-4.4598-22.805 3.6811-31.908 2.84-7.6653-.70832-9.376-7.3572-13.703-10.631-3.5595-2.6929-10.012-2.2244-12.525-7.5782-6.9062-14.716-23.008-10.986-28.734-31.406-7.75-27.64-6.014-40.093-6.014-40.093l121.28-1.6706z"/>
    <path fill="#8dd35f" fill-rule="evenodd" d="M352.03 286.39c-65.206 27.878-73.606 40.203-65.405 49.692 16.924 19.58 45.858 5.3434 60.059 2.3486 23.403-4.9352 36.363-.9716 54.78-.44468 11.882.33998 49.079-13.416 42.049-43.82-12.071-15.124-69.695-14.537-91.483-7.7756z"/>
    <path fill="url(#f)" fill-rule="evenodd" d="M465.96 344.2c-29.124 56.709-43.622 41.396-79.853 36.418-49.416-6.7898-43.915.63732-69.495-4.6776-43.7-9.0797-50.852-34.438-36.745-53.278 13.713-18.314 58.796-27.577 58.796-27.577 29.363 12.789 145.98 7.0329 127.3 49.114z"/>
    <path fill="#8dd35f" fill-rule="evenodd" d="M639.94 316.45c25.613 19.344 57.499 30.467 83.084 24.935 22.939-4.9598 50.972 38.447 80.403 22.315 56.746-31.103-25.515-85.996-25.515-85.996-46.305-11.34-138.92 39.69-137.97 38.745z"/>
    <path fill="#87de87" fill-rule="evenodd" d="M819.05 268.25c1.4175 32.603-71.348 22.208-71.348 22.208v.4725s34.02-44.415 71.348-22.68z"/>
    <path fill="url(#g)" fill-rule="evenodd" d="M639.94 316.45c25.613 19.344 57.499 30.467 83.084 24.935 22.939-4.9598 50.972 38.447 80.403 22.315 56.746-31.103-25.515-85.996-25.515-85.996-46.305-11.34-138.92 39.69-137.97 38.745z"/>
    <path fill="url(#h)" fill-rule="evenodd" d="M352.03 286.39c-65.206 27.878-73.606 40.203-65.405 49.692 16.924 19.58 45.858 5.3434 60.059 2.3486 23.403-4.9352 36.363-.9716 54.78-.44468 11.882.33998 49.079-13.416 42.049-43.82-12.071-15.124-69.695-14.537-91.483-7.7756z"/>
    <path fill="url(#i)" fill-rule="evenodd" d="M586.24 334.17c12.696 20.715 35.812 31.272 34.079 60.808-2.2763 38.806-27.895 13.477-43.769 12.362-9.1008-.6392-14.571 13.747-31.406 1.3364-14.96-11.028-25.021-23.72-44.771-36.084-16.901-10.58-6.014-38.089-6.014-38.089l91.881-.3341z"/>
    <path fill="url(#j)" fill-rule="evenodd" d="M634.35 322.14c26.729 15.369 83.579 60.955 65.486 64.149-12.932 2.2835-22.213 10.276-35.856 13.815-14.708 3.8158-34.16 2.6728-59.366-10.14-28.614-14.546-12.696-58.804-12.696-58.804l42.432-9.021z"/>
    <path fill="#a40" fill-rule="evenodd" d="M812.48 282.09c-2.1076 46.602-119.28 63.351-250.66 64.896-133.7 1.5718-281.5-12.933-267.2-65.841 237.92-73.631 517.64 1.0243 517.87.945z"/>
    <path fill="#d35f5f" fill-rule="evenodd" d="M301.91 264.9c-2.105 1.1155.66823 8.9792.66823 13.364 0 5.3812.7886 10.505 2.0046 15.369 2.3048 9.219 8.8285-8.4435 9.3551-10.023 1.7157-5.1471.66822-10.388.66822-.66823 0 4.7072-1.3364 9.4487-1.3364 14.701 0 1.8529 10.621-8.3334 11.36-12.028.45607-2.2803 1.4406-4.4262 2.0047-6.6822.328-1.312-2.2195 8.4958-.66823 14.701 1.5641 6.2564 6.6468.68595 9.3551-.66823.77127-.38565 0-9.9934 0-11.36 0-5.2514 4.8517-4.649 6.014 0 1.0992 4.3966 0 10.785 0 15.369 0 7.6188 9.7104 2.3176 12.696-.66823 3.6569-3.6568-1.0633-8.2626-2.0046-12.028-2.2642-9.0568.98767-6.7115 4.0093-.66822 1.3862 2.7724.66823 6.9253.66823 10.023 0 4.4883-.90785 6.9564 3.3411 8.0186 4.3963 1.0991 3.3411-10.714 3.3411-12.696 0-3.7395 2.0047-11.702 2.0047-4.0093 0 5.0536-.4827 10.765.66823 15.369 1.9701 7.8804 1.0056 6.28 10.023 2.6729 4.3431-1.7372 2.6729-10.65 2.6729-14.701 0-4.578-.2861-13.172 2.0046-4.0094.22275.89098.4455 1.7819.66823 2.6729 1.0991 4.3965 2.0047 6.8643 2.0047 11.36 0 4.425-2.0047 6.2764-2.0047 10.692 0 2.2127 11.36-.73703 11.36-6.014 0-4.864-2.6729-8.1539-2.6729-14.033 0-7.112 5.3458.76628 5.3458 4.6776v12.696c0 6.6857 7.3736 4.8694 10.023 1.3364 1.4967-1.9956-.66822-9.0745-.66822-11.36 0-5.8658 1.9596-7.4632 4.6776-.66822 1.621 4.0526.97962 6.7731 0 10.692-1.4851 5.9403-.03455 8.0186 4.6775 8.0186 4.4402 0 3.3411-11.846 3.3411-14.701 0-5.8424-.31767-13.937 6.6822-8.6869 2.9028 2.1771 1.3364 13.23 1.3364 16.706 0 4.604-1.3776 7.6743 2.6729 8.6869 5.9946 1.4987 3.886-13.19 3.3411-15.369-1.1427-4.5708-3.9724-13.075 3.3411-8.6869 4.919 2.9514 3.825 11.429 2.6729 16.037-.99975 3.9991 0 9.9547 0 14.033 0 7.4194 3.9446 6.3379 5.3458-.66823.92334-4.6166-.35433-10.256.66822-15.369.89992-4.4995 1.2278-10.746 5.3458-8.6869 1.3378.66888 0 15.14 0 18.042 0 5.9451 1.7858 12.247 8.0186 6.014 2.6664-2.6664-2.6729-13.533-2.6729-17.374 0-10.141 3.5814-6.6296 6.014.66822 2.0739 6.2218 0 13.13 0 19.378 0 6.7196 5.1641 5.7091 8.0186 0 2.0101-4.0201 0-14.459 0-19.378 0-9.1756 4.7417 2.165 6.014 5.3458 2.0259 5.0648-1.0293 7.6576 2.0046 10.692 6.8505 6.8505 8.6869-8.9025 8.6869-12.028 0-8.7938 5.5807-8.9636 9.3551-2.6729.92395 1.5399 1.7819 3.1184 2.6729 4.6776 2.4241 4.2422.88982 10.242 2.0047 14.701 1.4932 5.9726 10.692-6.7967 10.692-11.36 0-4.7156-1.575-17.887 5.3458-12.696 1.008.75602 1.7819 1.7819 2.6729 2.6729 4.1324 4.1324 2.2521 13.018 3.3411 17.374 1.1098 4.4394 5.7225 3.4868 8.6869 2.0047.79303-.39653-1.3364-19.586-1.3364-22.72 0-3.2228 4.6776 10.089 4.6776 14.701 0 8.867 2.7845 7.2389 7.3504 2.6729 2.3919-2.3919.66822-13.174.66822-16.706 0-1.4159 2.9719 7.9485 6.014 14.033 2.9642 5.9284 1.5193 6.7121 8.6869 1.3364 6.1773-4.633-7.6908-4.5414 12.696-12.696 9.5958-3.8383 9.8412-2.2484 11.36-11.36.4609-2.7654 6.014 2.0224 6.014 5.3458 0 5.587.7552 10.371 2.0047 15.369 1.389 5.5559 9.7414 14.329 13.56 10.51 6.1212-6.1212 1.2059-22.277-.1957-27.884-1.1321-4.5284.49763-10.35 2.0046-13.364 3.3834-6.7668 10.023 10.325 10.023 13.364v9.5983c0 6.0956 2.6879 12.996 7.3504 14.161 5.4836 1.3709 6.6822-11.915 6.6822-16.409 0-4.8297-1.6696-9.0258-.66822-14.033.82847-4.1424 5.3458 6.139 5.3458 8.6869 0 4.5812.18072 18.79 2.6729 21.282 4.6734 4.6734 5.3458-18.534 5.3458-20.614 0-4.4764.8823-9.8352 2.6729-2.6729 1.6704 6.6818-.3056 19.249 3.8136 23.368 4.3887 4.3888 4.5813-15.956 6.2098-20.027 2.1812-5.453-1.4109-9.2807 2.0046-12.696 3.7231-3.7231 3.3411 8.4653 3.3411 10.023v10.023c0 3.6473 4.6776-1.7836 4.6776-7.3504 0-3.8807-.66823-7.8444-.66823-12.028 0-4.6829.66823 9.3498.66823 14.033v13.364c0 4.8711 8.0187 2.9762 8.0187-2.0046v-20.047c0-5.4188 1.8421-11.667 3.3411-2.6729.9187 5.5122-.66822 9.3434-.66822 14.701 0 3.8854-.66823 8.0172-.66823 12.028 0 5.5812 3.0337 6.8359 7.3504 4.6776 1.2517-.62585-1.3364-13.897-1.3364-16.037 0-5.6083 1.3308-10.669 2.6729-16.037 2.0839-8.3356 1.662 1.6278 2.6729 6.6822.98144 4.9072.67157 8.0254 2.6729 12.028 2.283 4.566 2.0047-9.6662 2.0047-12.028v-10.023c0-.90418 4.6776 6.5621 4.6776 14.701 0 5.2814-.5862 11.02.66822 16.037 2.0832 8.3326 5.5555 4.7556 6.6822-2.0047.65157-3.9094-2.0047-11.68-2.0047-16.706 0-7.0655 4.0094-15.417 4.0094-2.6729 0 5.2522-1.2778 10.141.66822 14.033 3.19 6.3801 5.3458-2.7544 5.3458-6.014 0-7.7455.53442-14.366 3.3411-21.383 1.1464-2.8659 2.6729 10.464 2.6729 18.71 0 5.6438.60548 7.2668 2.6729 10.023 1.3632 1.8176 2.2272-14.924 2.0047-16.037-.7003-3.5014-.19783-7.2274.66822-10.692.21208-.84827 2.744 7.6349 4.6776 15.369 1.497 5.988-.37704 8.0186 6.6822 8.0186 8.0005 0 1.5761-14.222 0-17.374-2.1866-4.3732 1.6297-20.894 7.3504-11.36 3.4964 5.8274 4.0093 14.564 4.0093 21.383 0 8.3187.60312 9.0536 8.0187 5.3458 7.3688-3.6844-2.0047-17.028-2.0047-22.72 0-9.8887-1.0144-16.276 6.6822-6.014 2.139 2.852 0 15.911 0 20.047 0 5.5331-.44047 10.479 2.0047 15.369 2.5054 5.0107 4.1095 5.7636 6.6822-.66822.9907-2.4767-3.3411-17.824-3.3411-22.051 0-3.4187-1.531-21.772 2.0046-14.701 2.7088 5.4174.79893 13.887 2.0047 18.71 1.5835 6.334 5.3458 3.9232 5.3458-2.0047v-3.3411c0-5.4564-2.8502-13.323-2.0047-16.706.31087-1.2435 8.4109 8.7303 6.6822 17.374-1.0162 5.0811 2.6164-.28222 1.3364-6.6822-.8991-4.4956 0-10.148 0-14.701 0-12.725 8.2669 6.3386 9.3551 10.692 1.5943 6.3772 3.3411 9.8038 3.3411 16.037 0 6.2124 2.0307 8.6218 4.6776 2.0046 1.4405-3.6012.66823-10.126.66823-14.033 0-4.6096.66822-8.8892.66822-13.364 0-.8027 3.3413 8.0193 5.3458 16.037 1.2486 4.9944 4.0094 7.5417 4.0094.66822v-12.028c0-3.7416.2036-6.9432-1.3364-10.023-1.415-2.83-8.678-11.188-10.692-12.028-150-62.535-353.36-59.301-490.48 13.364z"/>
    <path fill="#8dd35f" fill-rule="evenodd" d="M626.02 286.6c38.273 28.35 131.36-23.153 131.36-23.153-41.15-24.827-106.36 4.9088-131.36 23.153z"/>
    <path fill="#8dd35f" fill-rule="evenodd" d="M733.5 288.1c-14.648 18.9-112.93 3.3075-112.93 3.3075-.00002 0 81.743-36.855 112.93-3.3075zm70.771-44.765c25.891 13.001 24.059 32.606 13.216 37.258-18.671 8.0096-64.247.07005-64.247.07005l51.031-37.328z"/>
    <path fill="url(#k)" fill-rule="evenodd" d="M804.27 243.33c25.891 13.001 24.059 32.606 13.216 37.258-18.671 8.0096-64.247.07005-64.247.07005l51.031-37.328z"/>
    <path fill="#8dd35f" fill-rule="evenodd" d="M805.79 245.1c16.914 12.529 9.9862 18.69-1.4316 21.665-14.419 3.757-36.841 2.4326-36.841 2.4326l38.273-24.098z"/>
    <path fill="url(#l)" fill-rule="evenodd" d="M805.79 245.1c16.914 12.529 9.9862 18.69-1.4316 21.665-14.419 3.757-36.841 2.4326-36.841 2.4326l38.273-24.098z"/>
    <path fill="#8dd35f" fill-rule="evenodd" d="M663.56 281.72c9.3427 17.362-7.622 22.047-20.449 31.849-13.686 10.458-51.816-4.4239-52.317-16.256-.80368-18.972 65.273-29.517 72.766-15.593z"/>
    <path fill="url(#m)" fill-rule="evenodd" d="M663.56 281.72c9.3427 17.362-7.622 22.047-20.449 31.849-13.686 10.458-51.816-4.4239-52.317-16.256-.80368-18.972 65.273-29.517 72.766-15.593z"/>
    <path fill="#fff900" fill-rule="evenodd" d="M626.02 286.6c38.273 28.35 131.36-23.153 131.36-23.153-41.15-24.827-106.36 4.9088-131.36 23.153z"/>
    <path fill="#8dd35f" fill-rule="evenodd" d="M322.62 238.28c-87.307 39.952 8.9866 57.708 34.079 50.117 9.4217-2.8502 22.752-.66063 40.224 8.0592 10.863 5.4215 23.227-3.7191 40 6.4478 20.58 12.475 51.835 4.6336 52.084-22.526.53215-57.043-165.53-42.491-166.39-42.098z"/>
    <path fill="url(#n)" fill-rule="evenodd" d="M322.62 238.28c-87.307 39.952 8.9866 57.708 34.079 50.117 9.4217-2.8502 22.752-.66063 40.224 8.0592 10.863 5.4215 23.227-3.7191 40 6.4478 20.58 12.475 51.835 4.6336 52.084-22.526.53215-57.043-165.53-42.491-166.39-42.098z"/>
    <path fill="#ffe680" fill-rule="evenodd" d="m799.77 205.52-475.16.703 210 154.45 265.16-155.16zM599.3 283.801c11.215.00025 20.312 2.989 20.312 6.6405 0 3.6518-9.0972 6.6408-20.312 6.6408-11.215 0-20.312-2.9892-20.312-6.6408-.00003-3.6512 9.0971-6.6405 20.312-6.6405zm-95 19.844c10.694 0 19.375 1.7418 19.375 3.828.00002 2.0865-8.6813 3.75-19.375 3.75-10.694 0-19.375-1.6632-19.375-3.75 0-2.0865 8.6813-3.828 19.375-3.828zm61.016 6.1718c8.6071.00025 15.547 1.6638 15.547 3.75-.00003 2.0868-6.9398 3.8282-15.547 3.8282s-15.625-1.7418-15.625-3.8282c-.00002-2.0862 7.0178-3.75 15.625-3.75z"/>
    <path fill="#fc0" fill-rule="evenodd" d="m805.08 204.89-461.09 3.2812 189.69 139.38.78125 8.5938 1.1719-8.6719c-.00002.00003 29.728-21.344 91.953-51.25 3.3232-1.5971 6.7566-3.2607 10.312-5 65.623-32.098 167.19-86.328 167.19-86.328zm-206.8 71.094c11.449-.00003 20.703 3.3316 20.703 7.4219-.00003 4.0902-9.2545 7.4219-20.703 7.4219-11.449-.00003-20.781-3.3316-20.781-7.4219.00002-4.0903 9.3326-7.4219 20.781-7.4219zm-94.531 20.312c10.366-.00003 18.75 2.3326 18.75 5.1562-.00002 2.8236-8.384 5.0781-18.75 5.0781-10.366-.00007-18.828-2.2545-18.828-5.0781.00002-2.8236 8.4621-5.1562 18.828-5.1562zm61.094 6.3281c8.3476.00005 15.156 2.3257 15.156 5.1562 0 2.8307-6.8086 5.1562-15.156 5.1562-8.3477.00008-15.078-2.3256-15.078-5.1562-.00003-2.8305 6.7304-5.1562 15.078-5.1562z"/>
    <path fill="#d40000" fill-rule="evenodd" d="M371.7 179.49c-71.813 0-79.196 31.623-78.297 47.453.54999 9.8295 6.4214 12.029 4.6982 22.044-6.0783 35.326 4.9938 34.767 11.423 25.382 4.9244-7.1883-.4265-12.377 2.231-15.861 5.6084-2.9142 28.812 4.0353 24.541 10.538-5.1525 7.8455-3.3436 14.554 1.0241 16.523 5.9231 2.6694 9.3571-13.57 9.3571-13.57 12.953-1.8505-3.2325 21.026-3.7533 30.697-1.7557 32.597 32.22 23.431 31.435 5.0789-.59255-13.867-6.0928-25.867-1.9563-30.405 7.0623-7.7477 1.0837 14.112 6.243 27.664 7.8016 20.493 15.526 3.3578 15.526 3.3578 2.2929-11.464-5.2902-20.413-7.3418-25.275-1.2598-2.9858-.43373-4.4306 6.0462-3.9711 19.23 1.3637 14.668 14.752 2.3668 31.047-10.365 13.731-9.3459 25.357-1.8055 25.647 5.1986.1996 11.907-11.833 16.285-24.628 4.7022-13.743 4.633-29.626 9.4508-28.49 6.9735 1.6443-.84377 8.195-1.1812 18.715-.61945 19.311 14.397 10.563 15.749 4.6448 2.6632-11.661-12.31-23.953 16.918-21.943 85.151 5.8568 245.5-9.573 315.2-56.394 29.894-20.082 31.715-40.25 31.715-40.25l-425.87-8.0041z"/>
    <path fill="#ffe680" fill-rule="evenodd" d="m803.75 241.61-131.02 3.3592 72.891 78.828 58.125-82.188zm-79.922 27.5c5.1074-.00025 9.2188 1.6155 9.2188 3.5938.00002 1.9788-4.1113 3.5938-9.2188 3.5938s-9.2969-1.6152-9.2969-3.5938c-.00002-1.978 4.1894-3.5938 9.2969-3.5938zm31.172.23425c4.4633.0005 8.0469 1.612 8.0469 3.5938.00002 1.982-3.5836 3.5938-8.0469 3.5938-4.4633.00025-8.125-1.6115-8.125-3.5938 0-1.9818 3.6617-3.5938 8.125-3.5938z"/>
    <path fill="#8dd35f" fill-rule="evenodd" d="M794.34 211.26c15.154 11.947 28.568 17.558 26.494 32.365-2.324 16.588-30.485 14.78-52.375 4.3244-28.081-13.413-51.025-39.229-51.025-39.229l76.906 2.5396z"/>
    <path fill="#fc0" fill-rule="evenodd" d="m671.41 235.6 70.156 74.844 3.3594 8.047-.625-10.078 56.094-72.812h-128.98zm52.188 29.375c4.9489 0 8.9062 2.289 8.9062 5.1562-.00002 2.8675-3.9573 5.2345-8.9062 5.2345-4.949 0-8.9844-2.367-8.9844-5.2345-.00003-2.8675 4.0354-5.1562 8.9844-5.1562zm31.172.8595c4.1889 0 7.5781 1.5078 7.5781 3.3592-.00002 1.8515-3.3892 3.3595-7.5781 3.3595s-7.5781-1.508-7.5781-3.3595c-.00002-1.8512 3.3892-3.3592 7.5781-3.3592z"/>
    <path fill="url(#o)" fill-rule="evenodd" d="M794.34 211.26c15.154 11.947 28.568 17.558 26.494 32.365-2.324 16.588-30.485 14.78-52.375 4.3244-28.081-13.413-51.025-39.229-51.025-39.229l76.906 2.5396z"/>
    <path fill="#8dd35f" fill-rule="evenodd" d="M690.03 233.29c4.725 28.823 39.088 22.213 57.646 22.208 11.665-.00313 37.328 10.868 64.261-6.6151-39.116-41.837-120.49-16.065-121.91-15.593z"/>
    <path fill="url(#p)" fill-rule="evenodd" d="M690.03 233.29c4.725 28.823 39.088 22.213 57.646 22.208 11.665-.00313 37.328 10.868 64.261-6.6151-39.116-41.837-120.49-16.065-121.91-15.593z"/>
    <path fill="#d4aa00" fill-rule="evenodd" d="M282.73 198.47C273.2739 95.21 415.54 32.71 559.54 33.03c141.86.31507 273.24 77.332 262.61 165.44-1.3302 11.026-2.9636 15.322-16.72 20.252-94.441 33.846-132.96 47.461-245.89 46.09-115.07-1.3969-177.46-5.5457-264.28-46.09-4.1463-1.9362-11.373-7.7896-12.525-20.252z"/>
    <path fill="url(#q)" fill-rule="evenodd" d="M393.46 267.68c1.6032-3.0729 13.572 4.4097 29.114 4.7148 13.955.27392 33.031.63097 33.031.63097-28.734 7.3504-63.184-3.3535-62.145-5.3458z"/>
    <path fill="url(#r)" fill-rule="evenodd" d="M310.93 232.94c14.945 8.4299 18.031 11.161 24.556 15.627 7.9133 5.4158 15.203 7.0928 15.203 7.0928-15.369 2.6729-39.091-22.72-39.759-22.72z"/>
    <path fill="url(#s)" fill-rule="evenodd" d="M301.91 246.3c-7.3504 12.696-1.3364 31.406-1.3364 31.406 4.0093-25.392 2.6729-31.406 1.3364-31.406z"/>
    <path fill="url(#t)" fill-rule="evenodd" d="M353.36 282.39c-20.047 29.402 1.3364 40.093 1.3364 40.093-15.035-17.04-.66822-40.093-1.3364-40.093z"/>
    <path fill="url(#u)" fill-rule="evenodd" d="M405.74 298.42c-18.042 18.71-16.037 32.075-16.037 32.075 9.021-19.713 18.376-29.402 16.037-32.075z"/>
    <path fill="url(#v)" fill-rule="evenodd" d="M379.68 284.72c-5.6799 14.367 5.3458 29.402 5.3458 29.402-3.6752-16.371-3.3411-25.058-5.3458-29.402z"/>
    <path fill="url(#w)" fill-rule="evenodd" d="M340.59 264.34c-8.6869 14.033-3.007 18.376-3.007 18.376 1.0023-8.3528 3.6752-18.376 3.007-18.376z"/>
    <path fill="url(#x)" fill-rule="evenodd" d="M422.52 290.64c-.00002 8.6869 2.6729 20.715 2.6729 20.715-10.023-.6682-2.0046-21.717-2.6729-20.715z"/>
    <path fill="url(#y)" fill-rule="evenodd" d="M282.73 198.47C273.2739 95.21 415.54 32.71 559.54 33.03c141.86.31507 273.24 77.332 262.61 165.44-1.3302 11.026-2.9636 15.322-16.72 20.252-94.441 33.846-132.96 47.461-245.89 46.09-115.07-1.3969-177.46-5.5457-264.28-46.09-4.1463-1.9362-11.373-7.7896-12.525-20.252z"/>
    <path fill="url(#z)" fill-rule="evenodd" d="M282.73 198.47C273.2739 95.21 415.54 32.71 559.54 33.03c141.86.31507 273.24 77.332 262.61 165.44-1.3302 11.026-2.9636 15.322-16.72 20.252-94.441 33.846-132.96 47.461-245.89 46.09-115.07-1.3969-177.46-5.5457-264.28-46.09-4.1463-1.9362-11.373-7.7896-12.525-20.252z"/>
    <path fill="#ff7f2a" d="M430.81 99.918c2.3343 3.7608-.73111 9.8915-6.8424 13.685-6.1112 3.7932-12.966 3.8195-15.3.05875-2.3343-3.7608.7311-9.8915 6.8423-13.685 6.1112-3.7932 12.966-3.8195 15.3-.058727zm38.449 15.705c-2.3198 3.7697-9.1742 3.7697-15.3-.00001-6.1258-3.7697-9.2146-9.8886-6.8948-13.658 2.3198-3.7697 9.1742-3.7697 15.3 0s9.2146 9.8886 6.8948 13.658zm77.442 20.568c0 4.4263-5.8376 8.0186-13.03 8.0186-7.1927 0-13.03-3.5924-13.03-8.0186 0-4.4263 5.8376-8.0187 13.03-8.0187 7.1928 0 13.03 3.5924 13.03 8.0187zm39.002-23.93c1.7731 4.0556-2.1366 9.6856-8.727 12.567-6.5904 2.8813-13.378 1.9282-15.151-2.1274-1.7731-4.0557 2.1366-9.6856 8.727-12.567 6.5904-2.8813 13.378-1.9282 15.151 2.1274zm-80.128-9.8863c1.7266 4.0757-2.2473 9.6605-8.8702 12.466-6.623 2.8057-13.399 1.775-15.126-2.3006-1.7266-4.0757 2.2473-9.6606 8.8702-12.466 6.623-2.8057 13.399-1.775 15.126 2.3006zm40.457-8.9499c0 4.4263-5.8376 8.0187-13.03 8.0187s-13.03-3.5924-13.03-8.0187c0-4.4263 5.8376-8.0187 13.03-8.0187s13.03 3.5924 13.03 8.0187zm-12.859-27.301c-2.7566 3.4632-9.5611 2.6383-15.189-1.8411-5.6276-4.4794-7.9578-10.926-5.2012-14.389 2.7566-3.4632 9.5612-2.6384 15.189 1.8411 5.6276 4.4794 7.9578 10.926 5.2012 14.389zm-51.291 9.9271c0 4.4263-5.8376 8.0186-13.03 8.0186-7.1927 0-13.03-3.5924-13.03-8.0186 0-4.4263 5.8376-8.0187 13.03-8.0187 7.1928 0 13.03 3.5924 13.03 8.0187zm20.722 72.14c-3.3952 2.8398-9.896.66689-14.511-4.8503s-5.6045-12.3-2.2093-15.14c3.3952-2.8399 9.896-.66692 14.511 4.8503 4.6148 5.5172 5.6045 12.3 2.2093 15.14zm117.85-10.072c-1.1086 4.2852-7.6599 6.301-14.623 4.4995s-11.715-6.7414-10.607-11.027c1.1086-4.2852 7.6599-6.301 14.623-4.4995s11.715 6.7414 10.607 11.027zm-51.245-76.787c1.5953 4.1288-2.5552 9.5837-9.2645 12.176-6.7093 2.5924-13.449 1.3455-15.045-2.7833-1.5954-4.1288 2.5551-9.5837 9.2644-12.176 6.7093-2.5924 13.449-1.3455 15.045 2.7833zm48.21 27.66c1.506 4.1622-2.761 9.5264-9.5246 11.974-6.7636 2.4473-13.475 1.0555-14.981-3.1067-1.506-4.1622 2.761-9.5265 9.5246-11.974s13.475-1.0555 14.981 3.1067zm-11.718-22.847c-1.1745 4.2676-7.756 6.1823-14.691 4.2737-6.9349-1.9085-11.61-6.9211-10.436-11.189 1.1745-4.2677 7.756-6.1823 14.691-4.2737 6.9349 1.9085 11.61 6.9211 10.436 11.189zm78.999 50.235c-3.4847 2.7293-9.9124.34869-14.348-5.3139-4.4352-5.6626-5.2066-12.473-1.7219-15.203 3.4847-2.7293 9.9124-.3487 14.348 5.3139 4.4352 5.6626 5.2066 12.473 1.7219 15.203zm-36.741-9.7271c.95451 4.3222-3.9711 9.0888-10.995 10.64-7.0235 1.5511-13.498-.69792-14.453-5.0201-.95451-4.3222 3.9711-9.0888 10.995-10.64 7.0235-1.5511 13.498.69792 14.453 5.0201zm6.6443-40.315c1.7108 4.0823-2.2847 9.6518-8.9185 12.432s-13.406 1.7231-15.117-2.3592c-1.7108-4.0823 2.2847-9.6518 8.9185-12.432 6.6338-2.78 13.406-1.7231 15.117 2.3592z"/>
    <path fill="url(#A)" d="M430.81 99.918c2.3343 3.7608-.73111 9.8915-6.8424 13.685-6.1112 3.7932-12.966 3.8195-15.3.05875-2.3343-3.7608.7311-9.8915 6.8423-13.685 6.1112-3.7932 12.966-3.8195 15.3-.058727z"/>
    <path fill="url(#B)" d="M469.26 115.62c-2.3198 3.7697-9.1742 3.7697-15.3-.00001-6.1258-3.7697-9.2146-9.8886-6.8948-13.658 2.3198-3.7697 9.1742-3.7697 15.3 0s9.2146 9.8886 6.8948 13.658z"/>
    <path fill="url(#C)" d="M546.7 136.19c0 4.4263-5.8376 8.0186-13.03 8.0186-7.1927 0-13.03-3.5924-13.03-8.0186 0-4.4263 5.8376-8.0187 13.03-8.0187 7.1928 0 13.03 3.5924 13.03 8.0187z"/>
    <path fill="url(#D)" d="M585.71 112.26c1.7731 4.0556-2.1366 9.6856-8.727 12.567-6.5904 2.8813-13.378 1.9282-15.151-2.1274-1.7731-4.0557 2.1366-9.6856 8.727-12.567 6.5904-2.8813 13.378-1.9282 15.151 2.1274z"/>
    <path fill="url(#E)" d="M505.58 102.38c1.7266 4.0757-2.2473 9.6605-8.8702 12.466-6.623 2.8057-13.399 1.775-15.126-2.3006-1.7266-4.0757 2.2473-9.6606 8.8702-12.466 6.623-2.8057 13.399-1.775 15.126 2.3006z"/>
    <path fill="url(#F)" d="M546.04 93.425c0 4.4263-5.8376 8.0187-13.03 8.0187s-13.03-3.5924-13.03-8.0187c0-4.4263 5.8376-8.0187 13.03-8.0187s13.03 3.5924 13.03 8.0187z"/>
    <path fill="url(#G)" d="M533.18 66.124c-2.7566 3.4632-9.5611 2.6383-15.189-1.8411-5.6276-4.4794-7.9578-10.926-5.2012-14.389 2.7566-3.4632 9.5612-2.6384 15.189 1.8411 5.6276 4.4794 7.9578 10.926 5.2012 14.389z"/>
    <path fill="url(#H)" d="M481.89 76.051c0 4.4263-5.8376 8.0186-13.03 8.0186-7.1927 0-13.03-3.5924-13.03-8.0186 0-4.4263 5.8376-8.0187 13.03-8.0187 7.1928 0 13.03 3.5924 13.03 8.0187z"/>
    <path fill="url(#I)" d="M502.61 148.19c-3.3952 2.8398-9.896.66689-14.511-4.8503s-5.6045-12.3-2.2093-15.14c3.3952-2.8399 9.896-.66692 14.511 4.8503 4.6148 5.5172 5.6045 12.3 2.2093 15.14z"/>
    <path fill="url(#J)" d="M620.46 138.12c-1.1086 4.2852-7.6599 6.301-14.623 4.4995s-11.715-6.7414-10.607-11.027c1.1086-4.2852 7.6599-6.301 14.623-4.4995s11.715 6.7414 10.607 11.027z"/>
    <path fill="url(#K)" d="M569.22 61.332c1.5953 4.1288-2.5552 9.5837-9.2645 12.176-6.7093 2.5924-13.449 1.3455-15.045-2.7833-1.5954-4.1288 2.5551-9.5837 9.2644-12.176 6.7093-2.5924 13.449-1.3455 15.045 2.7833z"/>
    <path fill="url(#L)" d="M617.43 88.992c1.506 4.1622-2.761 9.5264-9.5246 11.974-6.7636 2.4473-13.475 1.0555-14.981-3.1067-1.506-4.1622 2.761-9.5265 9.5246-11.974s13.475-1.0555 14.981 3.1067z"/>
    <path fill="url(#M)" d="M605.71 66.144c-1.1745 4.2676-7.756 6.1823-14.691 4.2737-6.9349-1.9085-11.61-6.9211-10.436-11.189 1.1745-4.2677 7.756-6.1823 14.691-4.2737 6.9349 1.9085 11.61 6.9211 10.436 11.189z"/>
    <path fill="url(#N)" d="M684.71 116.38c-3.4847 2.7293-9.9124.34869-14.348-5.3139-4.4352-5.6626-5.2066-12.473-1.7219-15.203 3.4847-2.7293 9.9124-.3487 14.348 5.3139 4.4352 5.6626 5.2066 12.473 1.7219 15.203z"/>
    <path fill="url(#O)" d="M647.97 106.65c.95451 4.3222-3.9711 9.0888-10.995 10.64-7.0235 1.5511-13.498-.69792-14.453-5.0201-.95451-4.3222 3.9711-9.0888 10.995-10.64 7.0235-1.5511 13.498.69792 14.453 5.0201z"/>
    <path fill="url(#P)" d="M654.61 66.338c1.7108 4.0823-2.2847 9.6518-8.9185 12.432s-13.406 1.7231-15.117-2.3592c-1.7108-4.0823 2.2847-9.6518 8.9185-12.432 6.6338-2.78 13.406-1.7231 15.117 2.3592z"/>
  </g>
</svg>